<svg xmlns="http://www.w3.org/2000/svg" enable-background="new 0 0 24 24" viewBox="0 0 24 24" id="eclipse">
  <polygon points="5.145 19.513 5.139 19.505 5.131 19.496"></polygon>
  <path fill="#2C2255" d="M6.605,15.101H2.925c0.487,1.671,1.392,3.169,2.716,4.493c2.11,2.111,4.647,3.164,7.615,3.164c0.593,0,1.168-0.044,1.725-0.128c2.236-0.337,4.192-1.348,5.87-3.036c1.332-1.323,2.243-2.822,2.734-4.493H6.605L6.605,15.101z M4.576,10.102H2.653c-0.071,0.429-0.118,0.862-0.14,1.296h21.485c-0.022-0.442-0.07-0.874-0.142-1.296H4.576L4.576,10.102z M2.514,12.602c0.022,0.442,0.069,0.873,0.14,1.295h21.205c0.072-0.429,0.119-0.861,0.141-1.295H2.514L2.514,12.602z M23.585,8.898c-0.49-1.676-1.401-3.181-2.734-4.514c-1.672-1.672-3.623-2.675-5.852-3.013c-0.577-0.087-1.16-0.131-1.743-0.13c-2.968,0-5.505,1.048-7.615,3.144c-1.324,1.333-2.23,2.838-2.716,4.514H23.585L23.585,8.898z"></path>
  <linearGradient id="a" x1="-1814.828" x2="-1813.828" y1="-663.241" y2="-663.241" gradientTransform="matrix(0 -16.1831 182.6272 0 121142.734 -29345.256)" gradientUnits="userSpaceOnUse">
    <stop offset="0" stop-color="#473788"></stop>
    <stop offset=".303" stop-color="#473788"></stop>
    <stop offset=".872" stop-color="#2c2255"></stop>
    <stop offset="1" stop-color="#2c2255"></stop>
  </linearGradient>
  <path fill="url(#a)" d="M20.346,10.102h-7.184v1.296h7.406C20.532,10.96,20.458,10.526,20.346,10.102L20.346,10.102L20.346,10.102z"></path>
  <linearGradient id="b" x1="-1814.829" x2="-1813.829" y1="-663.241" y2="-663.241" gradientTransform="matrix(0 -16.1842 182.6249 0 121141.164 -29347.418)" gradientUnits="userSpaceOnUse">
    <stop offset="0" stop-color="#473788"></stop>
    <stop offset=".303" stop-color="#473788"></stop>
    <stop offset=".872" stop-color="#2c2255"></stop>
    <stop offset="1" stop-color="#2c2255"></stop>
  </linearGradient>
  <path fill="url(#b)" d="M20.568,12.602h-7.405v1.295h7.184C20.458,13.473,20.532,13.039,20.568,12.602L20.568,12.602L20.568,12.602z"></path>
  <linearGradient id="c" x1="-1814.827" x2="-1813.827" y1="-661.278" y2="-661.278" gradientTransform="matrix(0 -16.1827 50.7998 0 33609.309 -29344.59)" gradientUnits="userSpaceOnUse">
    <stop offset="0" stop-color="#473788"></stop>
    <stop offset=".303" stop-color="#473788"></stop>
    <stop offset=".863" stop-color="#2c2255"></stop>
    <stop offset="1" stop-color="#2c2255"></stop>
  </linearGradient>
  <path fill="url(#c)" d="M19.907,15.101h-6.745v4.237c0.031,0,0.062,0.001,0.094,0.001C16.2,19.338,18.738,17.604,19.907,15.101L19.907,15.101L19.907,15.101z"></path>
  <path fill="#FFF" d="M4.861,12.602h19.123C23.994,12.41,24,12.217,24,12.023c0-0.21-0.008-0.418-0.019-0.625H2.514c-0.012,0.207-0.019,0.415-0.019,0.625c0,0.195,0.006,0.387,0.016,0.579H4.861L4.861,12.602z M6.562,8.898H2.925c-0.12,0.392-0.197,0.794-0.271,1.204H23.79c-0.073-0.406-0.17-0.808-0.289-1.204H6.562L6.562,8.898z M22.408,13.897H2.653c0.072,0.409,0.154,0.811,0.271,1.204h20.647c0.118-0.396,0.213-0.798,0.284-1.204H22.408L22.408,13.897z"></path>
  <path fill="#261E4A" d="M6.605,15.101L6.605,15.101H2.925c0.487,1.671,1.392,3.169,2.716,4.493c2.088,2.088,4.594,3.142,7.521,3.164v-3.42C10.258,19.301,7.761,17.577,6.605,15.101L6.605,15.101z M5.945,12.602H2.514c0.022,0.442,0.069,0.873,0.14,1.295l0,0l0,0h3.514C6.055,13.473,5.98,13.039,5.945,12.602L5.945,12.602z M6.167,10.102H4.576H2.653c-0.071,0.429-0.118,0.862-0.14,1.296h3.431C5.98,10.96,6.054,10.526,6.167,10.102L6.167,10.102z M13.162,1.241c-2.928,0.022-5.433,1.07-7.521,3.143c-1.324,1.333-2.23,2.838-2.716,4.514h3.638h6.6V1.241L13.162,1.241z"></path>
  <linearGradient id="d" x1="-1814.828" x2="-1813.828" y1="-663.281" y2="-663.281" gradientTransform="matrix(0 -16.1831 182.6272 0 121142.734 -29345.256)" gradientUnits="userSpaceOnUse">
    <stop offset="0" stop-color="#3e3076"></stop>
    <stop offset=".303" stop-color="#3e3076"></stop>
    <stop offset=".872" stop-color="#261e4a"></stop>
    <stop offset="1" stop-color="#261e4a"></stop>
  </linearGradient>
  <path fill="url(#d)" d="M13.162,10.102H6.167l0,0c-0.112,0.424-0.187,0.858-0.223,1.296h7.218V10.102L13.162,10.102z"></path>
  <linearGradient id="e" x1="-1814.829" x2="-1813.829" y1="-663.281" y2="-663.281" gradientTransform="matrix(0 -16.1842 182.6249 0 121141.164 -29347.418)" gradientUnits="userSpaceOnUse">
    <stop offset="0" stop-color="#3e3076"></stop>
    <stop offset=".303" stop-color="#3e3076"></stop>
    <stop offset=".872" stop-color="#261e4a"></stop>
    <stop offset="1" stop-color="#261e4a"></stop>
  </linearGradient>
  <path fill="url(#e)" d="M13.162,12.602H5.945l0,0c0.035,0.438,0.109,0.871,0.222,1.295h6.995V12.602L13.162,12.602z"></path>
  <linearGradient id="f" x1="-1814.827" x2="-1813.827" y1="-661.409" y2="-661.409" gradientTransform="matrix(0 -16.1827 50.7998 0 33609.309 -29344.59)" gradientUnits="userSpaceOnUse">
    <stop offset="0" stop-color="#3e3076"></stop>
    <stop offset=".303" stop-color="#3e3076"></stop>
    <stop offset=".863" stop-color="#261e4a"></stop>
    <stop offset="1" stop-color="#261e4a"></stop>
  </linearGradient>
  <path fill="url(#f)" d="M13.162,15.101H6.605l0,0c1.156,2.476,3.652,4.2,6.557,4.237V15.101L13.162,15.101z"></path>
  <path fill="#DEDEDE" d="M13.162,13.897H6.167H2.653l0,0c0.072,0.409,0.154,0.811,0.271,1.204h10.237V13.897L13.162,13.897z M13.162,11.398H5.944H2.514c-0.012,0.207-0.019,0.415-0.019,0.625c0,0.195,0.006,0.387,0.016,0.579h2.351h1.084h7.217V11.398L13.162,11.398z M13.162,8.898h-6.6H2.925c-0.12,0.392-0.197,0.794-0.271,1.204h10.509V8.898L13.162,8.898z"></path>
  <path fill="#F7941E" d="M1.875,12c0-5.676,4.262-10.392,9.807-11.221c-0.138-0.005-0.275-0.01-0.415-0.01C5.045,0.769,0,5.797,0,12c0,6.203,5.045,11.232,11.268,11.232c0.14,0,0.278-0.006,0.416-0.01C6.137,22.392,1.875,17.676,1.875,12L1.875,12z"></path>
  <path fill="#D7811A" d="M1.875,12H0l0,0c0,6.203,5.045,11.232,11.268,11.232c0.14,0,0.278-0.006,0.416-0.01C6.137,22.392,1.875,17.676,1.875,12L1.875,12L1.875,12z"></path>
</svg>
